<?xml version="1.0" encoding="UTF-8"?>
<svg version="1.1" xmlns="http://www.w3.org/2000/svg" width="920" height="121">
<path d="M0 0 C20.7590625 -0.0309375 20.7590625 -0.0309375 41.9375 -0.0625 C48.50192993 -0.07615601 48.50192993 -0.07615601 55.19897461 -0.09008789 C60.52648926 -0.09460449 60.52648926 -0.09460449 63.01734924 -0.09544373 C64.76397455 -0.09698335 66.51059877 -0.10050865 68.25721741 -0.10557556 C70.89667621 -0.11285244 73.53606984 -0.11390744 76.17553711 -0.11352539 C76.95888144 -0.1171235 77.74222578 -0.12072161 78.54930782 -0.12442875 C83.88597366 -0.11402634 83.88597366 -0.11402634 85 1 C85 9.25 85 17.5 85 26 C68.5 26 52 26 35 26 C35 31.61 35 37.22 35 43 C48.86 43 62.72 43 77 43 C77 50.92 77 58.84 77 67 C63.14 67 49.28 67 35 67 C35 81.52 35 96.04 35 111 C23.45 111 11.9 111 0 111 C0 74.37 0 37.74 0 0 Z " fill="#FEFEFE" transform="translate(12,7)"/>
<path d="M0 0 C2.24710303 -0.00217696 4.49370692 -0.02033096 6.74072266 -0.03930664 C18.49416801 -0.0873359 28.41617543 0.66858598 38.01806641 8.18530273 C48.49131046 19.15846298 46.49454722 38.06381113 46.58056641 51.99780273 C46.60448692 55.03812473 46.63274483 58.07817192 46.67234802 61.11833191 C46.69639255 62.99592995 46.71150381 64.87367236 46.71595764 66.75141907 C46.72614426 67.60978867 46.73633087 68.46815826 46.74682617 69.35253906 C46.75323875 70.46620598 46.75323875 70.46620598 46.75978088 71.60237122 C47.11868682 75.19153658 48.14322452 78.6859352 49.01806641 82.18530273 C39.11806641 82.18530273 29.21806641 82.18530273 19.01806641 82.18530273 C17.03806641 78.72030273 17.03806641 78.72030273 15.01806641 75.18530273 C14.04869141 75.94842773 13.07931641 76.71155273 12.08056641 77.49780273 C2.30814847 84.49509185 -10.35072268 85.23799186 -21.98193359 84.18530273 C-29.01424392 82.70437096 -35.36661344 79.82903662 -39.98193359 74.18530273 C-43.60657511 68.46786225 -44.96066538 62.89319622 -43.98193359 56.18530273 C-42.69229112 50.76880434 -40.3706758 45.76074431 -35.98193359 42.18530273 C-27.65316906 37.38137512 -18.5878388 35.44226565 -9.29443359 33.49780273 C-7.91853001 33.20144677 -6.5428768 32.90392591 -5.16748047 32.60522461 C-2.56951392 32.0413986 0.02926326 31.48215791 2.62890625 30.92602539 C6.44910542 30.0910964 10.23442798 29.17128297 14.01806641 28.18530273 C13.35806641 25.87530273 12.69806641 23.56530273 12.01806641 21.18530273 C9.81035836 21.10364778 7.60176215 21.04581786 5.39306641 20.99780273 C4.16330078 20.96299805 2.93353516 20.92819336 1.66650391 20.89233398 C-2.35329165 21.21512271 -4.64720398 21.93118198 -7.98193359 24.18530273 C-9.40750716 26.7425201 -9.40750716 26.7425201 -9.98193359 29.18530273 C-20.44098909 28.76956622 -30.69752239 28.29966272 -40.98193359 26.18530273 C-40.54991401 18.12093725 -37.92300619 13.19477237 -32.29443359 7.43530273 C-22.75093914 0.11697538 -11.4597248 -0.00124265 0 0 Z M2.70556641 48.37280273 C1.74199219 48.66477539 0.77841797 48.95674805 -0.21435547 49.25756836 C-7.32057952 51.52499759 -7.32057952 51.52499759 -11.98193359 57.18530273 C-11.91362896 60.05409721 -11.48418878 61.52728487 -9.74755859 63.80249023 C-6.70240659 66.18741017 -3.5765803 65.70912972 0.15478516 65.59545898 C4.63689197 64.95341094 7.77606616 63.33195004 11.01806641 60.18530273 C14.11342782 55.05861039 14.3234185 50.98699256 14.01806641 45.18530273 C10.33486963 45.18530273 6.18154875 47.26315338 2.70556641 48.37280273 Z " fill="#FEFEFE" transform="translate(303.98193359375,35.814697265625)"/>
<path d="M0 0 C1.47080146 -0.01145911 2.94156336 -0.03181378 4.41210938 -0.06152344 C15.88270454 -0.29250966 27.18031198 0.21376289 36.72485352 7.42016602 C41.92585142 12.50046566 44.84591027 20.25607138 45.30038452 27.49319458 C45.30688019 28.28910004 45.31337585 29.08500549 45.32006836 29.9050293 C45.33033051 30.8134256 45.34059265 31.7218219 45.35116577 32.65774536 C45.3584671 33.6337973 45.36576843 34.60984924 45.37329102 35.61547852 C45.40137352 37.69881952 45.43003807 39.78215274 45.45922852 41.86547852 C45.50035459 45.13695948 45.53725751 48.40829741 45.5637207 51.67993164 C45.59152907 54.84624994 45.63741241 58.01191621 45.68579102 61.17797852 C45.68904388 62.14188507 45.69229675 63.10579163 45.69564819 64.09890747 C45.71221466 65.02621674 45.72878113 65.953526 45.74584961 66.90893555 C45.75393646 67.70961456 45.76202332 68.51029358 45.77035522 69.3352356 C46.35662338 73.76207364 47.87920426 78.01800184 49.16235352 82.29516602 C38.93235352 82.29516602 28.70235352 82.29516602 18.16235352 82.29516602 C16.16235352 78.29516602 16.16235352 78.29516602 16.16235352 74.29516602 C15.16268555 75.00092773 15.16268555 75.00092773 14.14282227 75.72094727 C2.46068897 83.61251423 -8.92438665 85.803915 -22.83764648 84.29516602 C-29.50075229 82.85407569 -34.4834926 80.70487236 -38.83764648 75.29516602 C-39.58014648 74.42891602 -40.32264648 73.56266602 -41.08764648 72.67016602 C-45.20978857 67.07583032 -44.48549298 59.93559263 -43.83764648 53.29516602 C-41.8775163 47.83721731 -37.84060459 43.23013718 -32.83764648 40.29516602 C-25.57482415 37.16863459 -18.1268791 35.29128849 -10.40014648 33.73266602 C-8.38943845 33.3121819 -6.37901819 32.89031919 -4.36889648 32.46704102 C-3.41756836 32.26788086 -2.46624023 32.0687207 -1.48608398 31.86352539 C3.43072648 30.80836916 8.30095944 29.58108316 13.16235352 28.29516602 C12.56051603 26.27471159 11.88929256 24.27405562 11.16235352 22.29516602 C6.41730368 19.9226411 -0.26844544 21.01495154 -5.33764648 21.92016602 C-8.65426025 23.74430358 -9.28377997 25.92544386 -10.83764648 29.29516602 C-21.29670198 28.8794295 -31.55323528 28.409526 -41.83764648 26.29516602 C-41.39322725 19.33259796 -39.048848 13.45833674 -34.00952148 8.49438477 C-23.79452371 0.39075464 -12.58997284 0.06800889 0 0 Z M2.28735352 48.60766602 C1.5796582 48.82100586 0.87196289 49.0343457 0.14282227 49.25415039 C-3.83993882 50.49644551 -7.46304011 51.75940867 -10.83764648 54.29516602 C-12.08603029 57.70045597 -12.08603029 57.70045597 -11.83764648 61.29516602 C-10.67839111 63.95694443 -10.67839111 63.95694443 -7.83764648 65.29516602 C-1.88168222 66.19110594 3.07043667 65.68977724 8.16235352 62.29516602 C10.89972419 59.9277103 12.00945253 58.75386896 13.16235352 55.29516602 C13.22976216 53.73398174 13.24749808 52.17014082 13.22485352 50.60766602 C13.21583008 49.79942383 13.20680664 48.99118164 13.19750977 48.15844727 C13.1859082 47.54356445 13.17430664 46.92868164 13.16235352 46.29516602 C9.28618473 46.29516602 5.94666495 47.45712575 2.28735352 48.60766602 Z " fill="#FEFEFE" transform="translate(592.837646484375,35.704833984375)"/>
<path d="M0 0 C0.75587402 -0.01023193 1.51174805 -0.02046387 2.29052734 -0.03100586 C9.09471246 0.07482386 15.74266762 1.51844857 20.6875 6.5 C29.37841498 15.88539449 29.08823766 28.15102512 29.03515625 40.15234375 C29.0337413 41.36322159 29.03232635 42.57409943 29.03086853 43.82167053 C29.02529026 47.67280594 29.0127417 51.52388229 29 55.375 C28.99498219 57.9928377 28.99041978 60.61067631 28.98632812 63.22851562 C28.97618068 69.63155124 28.95660088 76.03445984 28.9375 82.4375 C18.0475 82.4375 7.1575 82.4375 -4.0625 82.4375 C-4.11148438 78.87453125 -4.16046875 75.3115625 -4.2109375 71.640625 C-4.26493842 68.19201435 -4.32224948 64.74347351 -4.37988281 61.29492188 C-4.41817905 58.89718826 -4.45303076 56.49939707 -4.484375 54.1015625 C-4.53001105 50.65604058 -4.5880087 47.21091528 -4.6484375 43.765625 C-4.65998871 42.69258118 -4.67153992 41.61953735 -4.68344116 40.51397705 C-4.70331085 39.51324158 -4.72318054 38.5125061 -4.74365234 37.48144531 C-4.75697601 36.60208313 -4.77029968 35.72272095 -4.7840271 34.81671143 C-5.08462195 32.24849487 -5.68464075 30.61606325 -7.0625 28.4375 C-10.52404802 26.70672599 -14.27742365 26.96520883 -18.0625 27.4375 C-21.63187605 29.72556157 -22.55624094 32.31751995 -23.64544678 36.3274231 C-24.45678994 40.43240631 -24.42453804 44.57413583 -24.4765625 48.74609375 C-24.49592865 49.71281509 -24.5152948 50.67953644 -24.5352478 51.67555237 C-24.59469191 54.74194713 -24.64128769 57.80838016 -24.6875 60.875 C-24.72571217 62.96290636 -24.76476576 65.0507975 -24.8046875 67.13867188 C-24.90193712 72.23819891 -24.98178486 77.33757761 -25.0625 82.4375 C-35.6225 82.4375 -46.1825 82.4375 -57.0625 82.4375 C-57.0625 55.7075 -57.0625 28.9775 -57.0625 1.4375 C-47.1625 1.4375 -37.2625 1.4375 -27.0625 1.4375 C-26.7325 4.7375 -26.4025 8.0375 -26.0625 11.4375 C-24.928125 10.365 -23.79375 9.2925 -22.625 8.1875 C-15.31863573 1.94480055 -9.53153363 0.09987263 0 0 Z " fill="#FEFEFE" transform="translate(219.0625,35.5625)"/>
<path d="M0 0 C0.78793945 0.00572021 1.57587891 0.01144043 2.38769531 0.01733398 C10.7053017 0.27179722 16.74103594 2.70300707 22.5625 8.75 C29.89788154 18.32329456 29.27960235 31.02531211 29.2578125 42.5 C29.25876923 43.61689209 29.25972595 44.73378418 29.26071167 45.88452148 C29.26138844 48.22753964 29.25956947 50.57055973 29.25537109 52.91357422 C29.24997507 56.51664356 29.25535377 60.11959054 29.26171875 63.72265625 C29.26105867 66.00260444 29.25977897 68.28255256 29.2578125 70.5625 C29.25983673 71.64466797 29.26186096 72.72683594 29.26394653 73.84179688 C29.25921829 75.32969727 29.25921829 75.32969727 29.25439453 76.84765625 C29.25359894 77.72429932 29.25280334 78.60094238 29.25198364 79.50415039 C29.125 81.5 29.125 81.5 28.125 82.5 C25.7493148 82.5883967 23.40291326 82.61530305 21.02734375 82.59765625 C19.96405602 82.59553383 19.96405602 82.59553383 18.87928772 82.59336853 C16.60698288 82.58775443 14.33477525 82.57519963 12.0625 82.5625 C10.52539204 82.55748681 8.98828255 82.55292359 7.45117188 82.54882812 C3.67574358 82.53778042 -0.09961171 82.52050641 -3.875 82.5 C-3.88308685 81.89722733 -3.89117371 81.29445465 -3.89950562 80.67341614 C-3.98561553 74.39526401 -4.08512215 68.11742527 -4.19238281 61.83959961 C-4.23064716 59.49720527 -4.26550446 57.15475267 -4.296875 54.81225586 C-4.34258025 51.443636 -4.40056661 48.07541627 -4.4609375 44.70703125 C-4.47248871 43.66102249 -4.48403992 42.61501373 -4.49594116 41.53730774 C-4.51581085 40.55666855 -4.53568054 39.57602936 -4.55615234 38.56567383 C-4.56947601 37.70629715 -4.58279968 36.84692047 -4.5965271 35.96150208 C-4.91295525 33.16450266 -5.63402842 31.02209114 -6.875 28.5 C-10.35568998 26.75965501 -14.07757598 26.91628543 -17.875 27.5 C-20.94542036 29.73884818 -22.53417043 31.17373045 -23.48716736 34.88212585 C-23.85308726 37.35208878 -24.03113114 39.70379342 -24.08032227 42.19848633 C-24.10026749 43.09904251 -24.12021271 43.99959869 -24.14076233 44.92744446 C-24.16583107 46.36521492 -24.16583107 46.36521492 -24.19140625 47.83203125 C-24.21218735 48.82377853 -24.23296844 49.81552582 -24.25437927 50.83732605 C-24.31960052 53.99564899 -24.37863202 57.15405288 -24.4375 60.3125 C-24.48071131 62.45769056 -24.52432643 64.60287302 -24.56835938 66.74804688 C-24.67601128 71.99861625 -24.77528878 77.24924981 -24.875 82.5 C-35.435 82.5 -45.995 82.5 -56.875 82.5 C-56.875 55.77 -56.875 29.04 -56.875 1.5 C-46.975 1.5 -37.075 1.5 -26.875 1.5 C-26.545 4.8 -26.215 8.1 -25.875 11.5 C-25.318125 10.95730469 -24.76125 10.41460937 -24.1875 9.85546875 C-23.424375 9.14003906 -22.66125 8.42460938 -21.875 7.6875 C-21.1325 6.97980469 -20.39 6.27210937 -19.625 5.54296875 C-13.57668223 1.04968722 -7.41625079 -0.06278223 0 0 Z " fill="#FEFEFE" transform="translate(422.875,35.5)"/>
<path d="M0 0 C10.56 0 21.12 0 32 0 C32.04898438 3.39539062 32.09796875 6.79078125 32.1484375 10.2890625 C32.20248117 13.5854932 32.25977543 16.88185253 32.31738281 20.17822266 C32.35561379 22.46527772 32.39047685 24.75239171 32.421875 27.03955078 C32.46765291 30.33126857 32.52562711 33.6225828 32.5859375 36.9140625 C32.59748871 37.93303619 32.60903992 38.95200989 32.62094116 40.00186157 C32.66437791 48.74175304 32.66437791 48.74175304 37 56 C40.05657695 56.57048096 42.93921194 56.52863352 46 56 C49.28175318 53.47031526 50.69243777 51.92268669 52 48 C52.10937012 46.45619363 52.16596127 44.9083372 52.18945312 43.36083984 C52.21452942 41.95455826 52.21452942 41.95455826 52.2401123 40.51986694 C52.25368774 39.51042023 52.26726318 38.50097351 52.28125 37.4609375 C52.29965942 36.4243399 52.31806885 35.38774231 52.33703613 34.31973267 C52.41583516 29.87699848 52.48364718 25.43411252 52.55224609 20.99121094 C52.60382188 17.75187324 52.66111652 14.51267214 52.71875 11.2734375 C52.73232544 10.25994232 52.74590088 9.24644714 52.7598877 8.20223999 C52.78496399 6.80541489 52.78496399 6.80541489 52.81054688 5.38037109 C52.82933899 4.14485001 52.82933899 4.14485001 52.84851074 2.8843689 C53 1 53 1 54 0 C64.23 0 74.46 0 85 0 C85 26.73 85 53.46 85 81 C75.1 81 65.2 81 55 81 C54.505 76.545 54.505 76.545 54 72 C53.32517578 72.68835938 53.32517578 72.68835938 52.63671875 73.390625 C45.3213088 80.36885173 38.04070928 83.15993541 27.9375 83.5 C20.19887178 83.2539252 14.12776233 81.58380367 8.125 76.625 C0.160271 66.78621712 -0.29332986 59.29936709 -0.1953125 46.97265625 C-0.19157681 45.61502797 -0.18873247 44.25739697 -0.18673706 42.89976501 C-0.17914431 39.34712118 -0.15953397 35.79464397 -0.1373291 32.24206543 C-0.11677613 28.60866591 -0.10760523 24.97523835 -0.09765625 21.34179688 C-0.07734772 14.227718 -0.03819079 7.11409515 0 0 Z " fill="#FEFEFE" transform="translate(654,37)"/>
<path d="M0 0 C1.04285156 -0.020625 2.08570313 -0.04125 3.16015625 -0.0625 C15.20821336 -0.12266508 25.53185755 3.10195783 34.60546875 11.25390625 C43.967161 21.07226641 46.91223141 31.97236322 46.65234375 45.25390625 C46.18598903 54.87102215 42.84414897 63.17278481 36.375 70.25 C35.59125 71.136875 34.8075 72.02375 34 72.9375 C27.73281325 78.45859309 21.43586376 81.22107511 13.375 83.25 C12.74819336 83.42273438 12.12138672 83.59546875 11.47558594 83.7734375 C-1.25824603 86.66237753 -16.53655797 84.36803864 -27.6015625 77.6171875 C-36.77343073 71.41997924 -42.67314677 62.99978435 -45.625 52.25 C-46.07086028 48.98836059 -46.14962182 45.78922271 -46.125 42.5 C-46.12000488 41.62182617 -46.11500977 40.74365234 -46.10986328 39.83886719 C-45.77807649 27.41402398 -40.37816513 17.57433308 -31.5 9.0625 C-22.27141324 1.50620748 -11.42460026 0.05525804 0 0 Z M-11.625 29.25 C-13.81421272 33.40877198 -14.01078917 37.44743261 -14 42.0625 C-13.99838867 42.77301514 -13.99677734 43.48353027 -13.99511719 44.21557617 C-13.83659234 50.98940515 -12.44567741 55.12710716 -7.875 60.1875 C-2.94079 62.51754361 0.98279292 62.62125522 6.125 61.25 C10.99958033 58.25025826 12.56821481 54.67035557 14.375 49.25 C14.95870749 40.31478542 15.33914064 32.95741701 9.375 25.875 C5.82233979 22.98846358 2.14666937 22.79271205 -2.26953125 22.8359375 C-6.38081253 23.55865029 -9.09805493 26.02307014 -11.625 29.25 Z " fill="#FEFEFE" transform="translate(866.625,35.75)"/>
<path d="M0 0 C24.75 0 49.5 0 75 0 C75 21 75 21 71.60351562 26.78051758 C70.09066259 28.29013125 68.52178521 29.74535159 66.90625 31.14453125 C66.08499634 31.93607101 65.26374268 32.72761078 64.41760254 33.5431366 C61.82393133 36.02070982 59.16720649 38.41452994 56.5 40.8125 C54.71267818 42.49429429 52.93007268 44.18111567 51.15234375 45.87304688 C46.82626253 49.98746056 42.42274879 53.98067762 38 58 C57.8 58.495 57.8 58.495 78 59 C78 66.26 78 73.52 78 81 C51.27 81 24.54 81 -3 81 C-3 60 -3 60 1.12890625 53.85546875 C2.88869706 52.24156733 4.70188805 50.68405091 6.5625 49.1875 C8.35716132 47.59956712 10.15015864 46.00975143 11.94140625 44.41796875 C12.81168457 43.67466309 13.68196289 42.93135742 14.57861328 42.16552734 C18.07325816 39.04014924 20.95755679 35.56785931 24 32 C26.64 29.36 29.28 26.72 32 24 C21.44 23.67 10.88 23.34 0 23 C0 15.41 0 7.82 0 0 Z " fill="#FEFEFE" transform="translate(464,37)"/>
<path d="M0 0 C-0.33 9.24 -0.66 18.48 -1 28 C4.61 28 10.22 28 16 28 C16 36.25 16 44.5 16 53 C10.39 53 4.78 53 -1 53 C-0.85870653 57.18769789 -0.71212981 61.37509861 -0.5625 65.5625 C-0.52318359 66.74392578 -0.48386719 67.92535156 -0.44335938 69.14257812 C-0.2362496 74.83013123 0.01968432 80.38995814 1 86 C6.02296004 87.13016601 9.97874074 86.77916092 15 86 C16.23107719 93.72720775 17.2700558 101.1683819 17 109 C5.34779828 111.55891489 -12.07296049 114.26483599 -23 108 C-29.6676089 102.33315792 -31.86896336 96.51918277 -32.79492188 87.93579102 C-33.24796045 81.45032806 -33.10051606 74.93537706 -33.0625 68.4375 C-33.0574746 66.93685045 -33.05291353 65.43619928 -33.04882812 63.93554688 C-33.03790576 60.29033023 -33.02069856 56.64517578 -33 53 C-36.63 53 -40.26 53 -44 53 C-44 44.75 -44 36.5 -44 28 C-40.37 28 -36.74 28 -33 28 C-33 23.38 -33 18.76 -33 14 C-27.44592589 11.06329757 -21.88629114 8.13766017 -16.32080078 5.22265625 C-14.42455461 4.22366605 -12.53712126 3.20796297 -10.65234375 2.1875 C-9.79769531 1.73375 -8.94304688 1.28 -8.0625 0.8125 C-7.35222656 0.42707031 -6.64195312 0.04164062 -5.91015625 -0.35546875 C-4 -1 -4 -1 0 0 Z " fill="#FEFEFE" transform="translate(795,9)"/>
<path d="M0 0 C10.23 0 20.46 0 31 0 C31 26.73 31 53.46 31 81 C20.44 81 9.88 81 -1 81 C-1.02255116 70.58656689 -1.04091517 60.17314987 -1.05181217 49.75969791 C-1.05704097 44.92483173 -1.06413854 40.08998306 -1.07543945 35.25512695 C-1.08626847 30.5932288 -1.09227686 25.93134754 -1.09487724 21.26943779 C-1.09673147 19.48675712 -1.10035203 17.70407741 -1.10573006 15.92140388 C-1.11294069 13.4333404 -1.11399093 10.94534757 -1.11352539 8.45727539 C-1.11712067 7.71281158 -1.12071594 6.96834778 -1.12442017 6.20132446 C-1.11405216 1.11405216 -1.11405216 1.11405216 0 0 Z " fill="#FEFEFE" transform="translate(113,37)"/>
<path d="M0 0 C1.29349365 0.00523682 2.5869873 0.01047363 3.91967773 0.01586914 C4.9496714 0.01799156 4.9496714 0.01799156 6.00047302 0.02015686 C8.20144949 0.0257706 10.40232557 0.03832532 12.60327148 0.05102539 C14.09220231 0.05603863 15.58113473 0.06060184 17.07006836 0.06469727 C20.72703954 0.07489518 24.38379265 0.0944676 28.04077148 0.11352539 C28.04077148 7.70352539 28.04077148 15.29352539 28.04077148 23.11352539 C17.48077148 23.11352539 6.92077148 23.11352539 -3.95922852 23.11352539 C-3.97985352 19.50415039 -4.00047852 15.89477539 -4.02172852 12.17602539 C-4.03083252 11.03657471 -4.03993652 9.89712402 -4.04931641 8.72314453 C-4.05181396 7.83232178 -4.05431152 6.94149902 -4.05688477 6.02368164 C-4.06212158 5.10723877 -4.0673584 4.1907959 -4.07275391 3.24658203 C-3.89401174 -0.11184868 -3.42244381 0.1312958 0 0 Z " fill="#FEFEFE" transform="translate(115.959228515625,6.886474609375)"/>
</svg>
